<svg width="29" height="28" viewBox="0 0 29 28" fill="none" xmlns="http://www.w3.org/2000/svg">
<g id="Icon">
<g id="Icon_2">
<path d="M2.65362 8.16669H25.9868C25.9859 7.01361 25.9713 6.4092 25.7326 5.94071C25.5089 5.50166 25.1519 5.14471 24.7129 4.92101C24.2137 4.66669 23.5604 4.66669 22.2536 4.66669H6.3869C5.08011 4.66669 4.42671 4.66669 3.92759 4.92101C3.48854 5.14471 3.13159 5.50166 2.90788 5.94071C2.66917 6.4092 2.65452 7.01361 2.65362 8.16669Z" fill="#437EF7"/>
<path fill-rule="evenodd" clip-rule="evenodd" d="M25.9869 10.5H2.65356V19.6C2.65356 20.9068 2.65356 21.5602 2.90788 22.0593C3.13159 22.4984 3.48854 22.8553 3.92759 23.079C4.42671 23.3334 5.08011 23.3334 6.3869 23.3334H22.2536C23.5604 23.3334 24.2137 23.3334 24.7129 23.079C25.1519 22.8553 25.5089 22.4984 25.7326 22.0593C25.9869 21.5602 25.9869 20.9068 25.9869 19.6V10.5ZM6.15356 18.6667C6.15356 18.0224 6.6759 17.5 7.32023 17.5H11.9869C12.6312 17.5 13.1536 18.0224 13.1536 18.6667C13.1536 19.311 12.6312 19.8334 11.9869 19.8334H7.32023C6.6759 19.8334 6.15356 19.311 6.15356 18.6667ZM16.6536 17.5C16.0092 17.5 15.4869 18.0224 15.4869 18.6667C15.4869 19.311 16.0092 19.8334 16.6536 19.8334H21.3202C21.9646 19.8334 22.4869 19.311 22.4869 18.6667C22.4869 18.0224 21.9646 17.5 21.3202 17.5H16.6536Z" fill="#437EF7"/>
</g>
</g>
</svg>
