<svg width="33" height="32" viewBox="0 0 33 32" fill="none" xmlns="http://www.w3.org/2000/svg">
<g id="Icon">
<path id="Icon_2" d="M16.5 30.6666C24.6002 30.6666 31.1667 24.1001 31.1667 15.9999C31.1667 7.89974 24.6002 1.33325 16.5 1.33325M16.5 30.6666C8.39983 30.6666 1.83334 24.1001 1.83334 15.9999C1.83334 7.89974 8.39983 1.33325 16.5 1.33325M16.5 30.6666C19.4455 30.6666 21.8333 24.1001 21.8333 15.9999C21.8333 7.89974 19.4455 1.33325 16.5 1.33325M16.5 30.6666C13.5545 30.6666 11.1667 24.1001 11.1667 15.9999C11.1667 7.89974 13.5545 1.33325 16.5 1.33325M3.16668 10.6666H29.8333M3.16668 19.9999H29.8333" stroke="#437EF7" stroke-width="2" stroke-linecap="round"/>
</g>
</svg>
