<svg width="33" height="32" viewBox="0 0 33 32" fill="none" xmlns="http://www.w3.org/2000/svg">
<g id="Icon">
<path id="Icon_2" d="M20.3978 9.45097L17.6478 4.66404C17.1372 3.77523 15.8565 3.77098 15.34 4.65638L12.4382 9.63087C12.0539 10.2898 11.4058 10.7525 10.6578 10.9021L6.69281 11.6951C5.6659 11.9005 5.26576 13.1553 5.98419 13.9172L8.85196 16.9588C9.46519 17.6092 9.71175 18.5236 9.50863 19.3941L8.21058 24.9572C7.94375 26.1007 9.17855 27.0058 10.1888 26.4072L15.1411 23.4725C15.9793 22.9758 17.0218 22.9758 17.86 23.4725L22.8123 26.4072C23.8225 27.0058 25.0573 26.1007 24.7905 24.9572L23.4811 19.3454C23.2842 18.5018 23.5094 17.6152 24.0849 16.9678L26.9562 13.7376C27.6403 12.9679 27.2309 11.7463 26.2211 11.5443L22.1871 10.7375C21.4331 10.5867 20.7808 10.1178 20.3978 9.45097Z" stroke="#437EF7" stroke-width="2" stroke-miterlimit="10"/>
</g>
</svg>
