<svg width="29" height="28" viewBox="0 0 29 28" fill="none" xmlns="http://www.w3.org/2000/svg">
<g id="star fill">
<path id="Icon" d="M16.4427 3.59124L18.3696 7.65793C18.6854 8.32367 19.2951 8.78506 20.0007 8.89193L24.3098 9.54414C26.0864 9.81296 26.7958 12.0866 25.5102 13.3918L22.3911 16.5568C21.8807 17.0751 21.6478 17.8219 21.7682 18.5537L22.5042 23.0233C22.808 24.8662 20.9505 26.2712 19.362 25.4014L15.5077 23.2923C14.8767 22.9467 14.1227 22.9467 13.4916 23.2923L9.63735 25.4028C8.04879 26.2726 6.19126 24.866 6.49507 23.0247L7.23108 18.5551C7.3521 17.8229 7.11897 17.0755 6.60819 16.5568L3.48995 13.3914C2.20421 12.0862 2.9137 9.81261 4.69028 9.54378L8.99939 8.89157C9.70497 8.78469 10.3147 8.32326 10.6305 7.65757L12.5566 3.5913C13.352 1.91402 15.6473 1.91397 16.4427 3.59124Z" fill="#FFAE43"/>
</g>
</svg>
